<svg width="50" height="50" viewBox="0 0 50 50" fill="none" xmlns="http://www.w3.org/2000/svg">
<path d="M22.9229 4.5267C18.8388 5.18513 14.4945 7.65427 11.992 10.7201C9.08909 14.2386 7.80781 17.6337 7.46747 22.5102L7.30731 24.753L6.32633 25.0411C4.86486 25.4938 3.14314 27.3045 2.68268 28.9094C1.8018 32.0987 3.42342 35.4115 6.34635 36.358C7.04705 36.5843 7.40741 36.8106 7.40741 37.037C7.40741 37.9012 8.08809 39.8765 8.74875 40.8847C10.6106 43.7654 15.2152 46.0905 19.7397 46.4403C21.3213 46.5637 21.3814 46.5843 21.6416 47.2016C22.0821 48.1892 23.0831 48.7654 24.3644 48.7654C26.4464 48.7654 27.4274 47.8395 27.4274 45.8847C27.4274 43.8271 26.3463 42.9012 24.1041 43.0452C23.043 43.1069 22.7427 43.2304 22.2222 43.7242C21.9019 44.0534 21.5816 44.465 21.5215 44.6502C21.4414 44.9382 21.2012 44.9588 19.96 44.8353C16.8368 44.5267 13.4134 43.2304 11.6116 41.6666C10.5706 40.7818 9.48949 39.2592 9.28929 38.4362C9.16917 37.8806 9.18919 37.86 10.0901 37.86C11.2312 37.86 12.1522 37.4897 12.8128 36.7489L13.3133 36.1728L13.3734 31.0699C13.4334 25.3497 13.3534 24.8148 12.1722 24.074C11.6917 23.786 11.1712 23.6625 10.2302 23.6625H8.94895L9.10911 21.9753C9.90991 12.4074 17.4575 5.49377 26.5265 6.02875C34.9149 6.54316 41.4615 13.1892 42.1622 21.893L42.3023 23.6625H41.021C40.0801 23.6625 39.5596 23.786 39.0791 24.074C37.9379 24.7942 37.8378 25.3292 37.8378 30.823C37.8378 35.5967 37.8579 35.7613 38.2983 36.4403C38.959 37.4897 39.8599 37.86 41.6617 37.86C42.8829 37.86 43.2432 37.7777 43.5035 37.4897C43.7037 37.2839 43.8438 37.0164 43.8438 36.9135C43.8438 36.7901 44.3443 36.5432 44.965 36.3374C46.4665 35.8436 47.8278 34.4855 48.4284 32.86C48.9289 31.4403 48.969 30.3086 48.5285 28.8065C48.0881 27.3045 46.3463 25.4732 44.9249 25.0411L43.9439 24.753L43.8038 22.5514C43.3033 14.9382 39.5996 9.19748 33.1932 6.06991C32.3924 5.67896 31.011 5.16456 30.1301 4.93822C28.2883 4.44439 24.7447 4.23863 22.9229 4.5267ZM11.4915 25.6378C11.7718 25.9053 11.8118 26.6666 11.8118 30.7613V35.5967L11.3313 35.9053C11.031 36.1111 10.5305 36.2139 9.96997 36.1728L9.10911 36.1111L9.04905 30.6995L9.00901 25.3086H10.0901C10.8108 25.3086 11.2913 25.4115 11.4915 25.6378ZM42.2022 30.6995L42.1421 36.1111L41.2813 36.1728C40.7207 36.2139 40.2202 36.1111 39.9199 35.9053L39.4394 35.5967V30.7613C39.4394 25.1851 39.3994 25.3086 41.1612 25.3086H42.2422L42.2022 30.6995ZM7.40741 30.7818V34.9999L6.96697 34.8765C5.44544 34.4032 4.004 32.4485 4.004 30.8847C4.004 29.1975 4.94494 27.5514 6.30631 26.8518C7.42743 26.2757 7.40741 26.1934 7.40741 30.7818ZM45.6256 27.3456C47.5275 28.8888 47.7277 31.7078 46.0861 33.5802C45.4655 34.2798 44.4044 34.9794 43.9439 34.9794C43.8839 34.9794 43.8438 33.0658 43.8438 30.7407V26.502L44.4044 26.646C44.7047 26.7078 45.2452 27.037 45.6256 27.3456ZM25.5856 44.8971C25.9059 45.2263 25.9059 46.5432 25.5856 46.8724C25.2653 47.2016 23.5836 47.2016 23.2633 46.8724C23.1231 46.7283 23.023 46.2962 23.023 45.8847C23.023 44.9176 23.3233 44.6502 24.4244 44.6502C24.9249 44.6502 25.4454 44.753 25.5856 44.8971Z" fill="white"/>
</svg>

