<svg width="50" height="50" viewBox="0 0 50 50" fill="none" xmlns="http://www.w3.org/2000/svg">
<path d="M24.414 3.7305C23.6328 4.043 21.8945 5.25393 21.6992 5.62503C21.6015 5.82034 21.4062 6.69925 21.289 7.57815C21.0547 9.27737 21.0351 9.17971 21.9726 10.7227C22.8711 12.2266 23.1836 12.6172 23.8086 13.0274C24.5703 13.5352 25.664 13.6133 26.6211 13.2032C27.3047 12.9297 28.5156 11.6797 28.5156 11.25C28.5156 11.1133 28.789 10.6446 29.1211 10.2344C29.707 9.51175 29.707 9.47268 29.5703 7.91018C29.4336 6.26956 29.1211 5.25393 28.5547 4.6094C27.7344 3.69143 25.625 3.24222 24.414 3.7305ZM27.0508 5.00003C27.8906 5.39065 28.2422 6.19143 28.3789 7.94925C28.4765 9.16018 28.4375 9.39456 28.1445 9.6094C27.9492 9.74612 27.6172 10.2539 27.4023 10.7422C26.875 11.9141 26.4844 12.2071 25.3906 12.2071C24.2969 12.2071 23.9062 11.9141 23.3984 10.7813C23.1836 10.3125 22.8515 9.76565 22.6562 9.57034C22.3437 9.25784 22.3047 9.00393 22.3828 8.16409C22.539 6.69925 22.832 5.8594 23.1836 5.8594C23.3398 5.8594 23.789 5.58597 24.1601 5.27347C24.9219 4.58987 25.9961 4.49222 27.0508 5.00003Z" fill="white"/>
<path d="M21.4648 14.1406C20.0977 14.707 19.3164 15.2734 18.8672 16.0352L18.5352 16.6016H15.8594C13.2617 16.6016 13.1445 16.6211 12.207 17.168C11.4844 17.5781 11.0742 17.9883 10.6836 18.7109C10.1758 19.668 10.1562 19.7656 10.1562 23.0078V26.3281L9.53125 26.543C9.19921 26.6602 8.65234 26.9727 8.32031 27.207C7.98828 27.4609 7.55859 27.7149 7.38281 27.793C6.77734 28.0078 6.44531 28.8281 6.23046 30.5664C6.03515 32.1875 6.03515 32.3047 6.42578 32.793C6.66015 33.0664 7.01171 33.6524 7.20703 34.082C7.61718 34.9805 8.47656 35.8985 9.14062 36.1524C9.76562 36.3867 11.0742 36.3672 11.582 36.1133C12.3437 35.7227 13.2617 34.707 13.4961 34.043C13.6133 33.6914 13.7891 33.3985 13.8867 33.3985C13.9648 33.3985 14.1797 33.1445 14.3555 32.8125C14.707 32.1289 14.5898 29.8633 14.1211 28.5547C13.8086 27.6758 13.0078 26.9336 12.0117 26.6211L11.4258 26.4258L11.3672 23.125C11.3281 20.1172 11.3672 19.7656 11.7187 19.1797C12.4414 17.9883 13.0859 17.7734 15.7812 17.7734H18.1641V20.4883C18.1641 22.5391 18.2227 23.2422 18.4375 23.418C18.6133 23.5742 20.6641 23.6328 25.6055 23.5938L32.5195 23.5352L32.5781 20.6445L32.6367 17.7734H34.9414C37.0117 17.7734 37.3047 17.8125 37.8906 18.2031C39.2773 19.1406 39.3555 19.3945 39.4141 23.0274L39.4922 26.3086L38.8477 26.543C38.4961 26.6602 37.9492 26.9727 37.6172 27.207C37.2852 27.4609 36.8555 27.7149 36.6797 27.793C36.0742 28.0078 35.7031 28.8867 35.5273 30.5078C35.332 32.1289 35.4883 33.0078 36.0156 33.3594C36.1328 33.4375 36.4453 33.9258 36.6992 34.4336C36.9531 34.9414 37.4219 35.5469 37.7539 35.7813C38.3594 36.211 39.7266 36.4453 40.5078 36.25C41.2305 36.0742 42.2852 35.0781 42.7539 34.1211C42.9883 33.6719 43.3398 33.0664 43.5742 32.793C43.9453 32.3242 43.9648 32.1875 43.7695 30.4688C43.4961 27.9883 42.9883 27.2266 41.1914 26.582L40.6641 26.3867L40.6055 23.0078C40.5273 19.707 40.5078 19.6094 39.9805 18.6914C39.6875 18.1836 39.0625 17.5195 38.6328 17.2266C37.8711 16.7188 37.6953 16.6992 35.0781 16.6406L32.3242 16.5625L31.7969 15.8203C31.1523 14.9024 29.0625 13.8086 27.8906 13.7891C27.1094 13.7695 27.0898 13.7695 26.8555 14.707C26.6211 15.6445 25.918 16.6016 25.4687 16.6016C24.9805 16.6016 24.375 15.8594 24.0234 14.8438C23.7109 13.9063 23.5937 13.7695 23.1055 13.7305C22.8125 13.6914 22.0703 13.8867 21.4648 14.1406ZM23.0273 15.6836C23.2617 16.3477 24.375 17.5586 25.1367 17.9492C25.4883 18.125 25.6836 18.0469 26.543 17.2656C27.0703 16.7774 27.6367 16.0742 27.7734 15.7031C27.9102 15.332 28.1445 15.0391 28.3203 15.0391C28.9062 15.0586 30.5664 16.1133 30.9961 16.7774C31.4062 17.3828 31.4453 17.6563 31.4453 19.9414V22.4609H25.3711H19.2969L19.375 19.8438C19.4531 16.7969 19.5898 16.4844 21.2109 15.5859C22.4805 14.8828 22.7734 14.9024 23.0273 15.6836ZM11.7773 27.8125C12.8516 28.2617 13.125 28.7305 13.3008 30.5078C13.457 32.0313 13.4375 32.1485 13.0078 32.6172C12.7734 32.8906 12.4414 33.3985 12.3047 33.75C11.9531 34.6289 11.2305 35.1563 10.3516 35.1563C9.41406 35.1563 8.73046 34.6094 8.30078 33.5547C8.125 33.1055 7.8125 32.6172 7.59765 32.461C7.28515 32.2461 7.24609 32.0508 7.36328 30.9961C7.51953 29.4336 7.69531 28.9453 8.24218 28.7109C8.49609 28.5938 8.98437 28.2813 9.35546 28.0274C10.0977 27.4805 10.8398 27.4219 11.7773 27.8125ZM41.1133 27.8125C42.0508 28.2031 42.4023 28.8867 42.5977 30.6055C42.7539 31.9922 42.7344 32.1485 42.3828 32.4414C42.1875 32.6172 41.8555 33.125 41.6797 33.5742C41.2695 34.6094 40.5664 35.1563 39.6484 35.1563C38.75 35.1563 38.0273 34.6289 37.6367 33.6524C37.4805 33.2422 37.168 32.7344 36.9336 32.5391C36.582 32.2266 36.543 32.0117 36.6211 31.1719C36.8555 29.1211 36.9141 28.9258 37.3633 28.7891C37.5977 28.7305 38.0078 28.4766 38.2812 28.2227C39.1016 27.4805 39.9805 27.3438 41.1133 27.8125Z" fill="white"/>
<path d="M23.7305 24.9805C23.1836 25.0977 23.125 25.1953 22.9492 26.3086C22.8516 26.9727 22.6953 27.5781 22.6172 27.6367C22.5586 27.7148 22.0313 27.4609 21.4453 27.0703C20.8789 26.6797 20.3125 26.3672 20.1953 26.3672C19.9609 26.3672 17.7734 28.5938 17.7734 28.8281C17.7734 28.9062 18.125 29.4141 18.5352 29.9805C18.9649 30.5273 19.2383 31.0938 19.1797 31.1914C19.1016 31.3086 18.6133 31.4648 18.0664 31.543C16.3672 31.7969 16.3281 31.8359 16.4649 33.6523C16.543 34.5117 16.6797 35.3125 16.7578 35.3906C16.8555 35.4883 17.4414 35.625 18.0469 35.6836C18.6524 35.7422 19.1992 35.8789 19.2578 35.9766C19.3164 36.0742 19.0625 36.6406 18.6719 37.207C18.2813 37.793 17.9688 38.3398 17.9688 38.418C17.9688 38.6719 20.1953 40.8203 20.4688 40.8203C20.625 40.8203 21.1133 40.5078 21.5625 40.1367C22.7344 39.1797 22.9883 39.2383 23.1445 40.4688C23.3789 42.1484 23.418 42.1875 25.1758 42.1875C26.9727 42.1875 27.1094 42.0898 27.2852 40.6445C27.4414 39.2383 27.6758 39.1406 28.8086 39.9414C29.3359 40.3125 29.8438 40.625 29.9805 40.625C30.2539 40.625 32.4219 38.4375 32.4219 38.1641C32.4219 38.0469 32.1094 37.5391 31.7188 37.0312C31.3281 36.5234 31.0742 35.9961 31.1133 35.8594C31.1719 35.7227 31.6797 35.5469 32.2461 35.4688C32.832 35.3906 33.3984 35.2344 33.5352 35.1172C33.8867 34.8242 33.8867 31.9531 33.5352 31.6797C33.3984 31.5625 32.7734 31.4062 32.168 31.3281C31.543 31.25 30.9961 31.1133 30.9375 31.0156C30.8789 30.918 31.1524 30.4102 31.5234 29.8828C31.9141 29.3359 32.2266 28.7891 32.2266 28.6328C32.2266 28.3789 30.0391 26.1719 29.7656 26.1719C29.6875 26.1719 29.1602 26.5234 28.5938 26.9531C27.4219 27.832 27.2656 27.7734 27.0508 26.2695C26.9727 25.7227 26.8164 25.1758 26.7188 25.0391C26.5039 24.7852 24.7852 24.7461 23.7305 24.9805ZM25.8789 26.4062C25.9375 26.6602 26.0547 27.207 26.1328 27.6367C26.2695 28.3203 26.3867 28.457 27.0899 28.7109C27.9102 28.9844 27.9102 28.9844 28.7109 28.3398C29.5508 27.6562 29.9609 27.6562 30.5664 28.3203C30.918 28.7109 30.8984 28.75 30.3125 29.5703C29.6094 30.5469 29.5703 30.8398 29.9805 31.6211C30.293 32.2461 30.625 32.4219 31.4453 32.4219C32.4024 32.4219 32.6172 32.5977 32.6172 33.418C32.6172 34.2383 32.6758 34.1992 30.9766 34.5312C30.3125 34.668 30.1758 34.7852 29.9219 35.4883L29.6094 36.3086L30.3711 37.207L31.1133 38.125L30.5078 38.7109L29.9219 39.2969L29.043 38.6914C28.0469 38.0078 27.7539 37.9688 26.9531 38.3789C26.4844 38.6133 26.3672 38.8281 26.2695 39.5898C26.0742 40.9766 26.0547 41.0156 25.2149 41.0156C24.5117 41.0156 24.4336 40.957 24.3359 40.4297C24.2774 40.1172 24.1602 39.5703 24.1016 39.2578C24.0234 38.8086 23.8086 38.5938 23.3008 38.3789C22.4024 37.9883 22.4609 37.9883 21.4453 38.75L20.5859 39.4141L19.9414 38.8867L19.2969 38.3398L20 37.3633C20.7031 36.3867 20.7031 36.3672 20.4102 35.6641C20.0781 34.8828 19.5117 34.5703 18.457 34.5703C17.8516 34.5703 17.793 34.5117 17.6758 33.7695C17.5977 33.3398 17.5781 32.9492 17.6172 32.8906C17.6758 32.8516 18.1641 32.7344 18.7305 32.6172C20.0391 32.3633 20.0586 32.3633 20.332 31.4453C20.5469 30.7422 20.5274 30.6445 19.9414 29.9219C19.6094 29.4922 19.3359 29.082 19.3359 28.9844C19.3359 28.9062 19.5703 28.5938 19.8438 28.3008L20.3711 27.7539L21.3281 28.418C22.2852 29.0625 22.3242 29.0625 23.0078 28.7695C23.9063 28.3984 24.0234 28.2227 24.0234 27.2266C24.0234 26.2695 24.2969 25.9766 25.1367 25.9766C25.6445 25.9766 25.8008 26.0742 25.8789 26.4062Z" fill="white"/>
<path d="M24.2188 30.332C23.2422 30.6641 22.7734 31.0352 22.2656 31.8945C20.7813 34.3945 23.3008 37.6367 26.0352 36.7383C27.4609 36.2695 28.5156 34.8828 28.5156 33.4961C28.5156 31.3672 26.1719 29.668 24.2188 30.332ZM26.3672 31.8164C27.4805 32.6172 27.5977 34.082 26.6016 35C25.8984 35.6641 25.332 35.8203 24.5117 35.5469C23.5742 35.2344 23.0469 34.5117 23.0469 33.5156C23.0469 31.6602 24.8633 30.7422 26.3672 31.8164Z" fill="white"/>
<path d="M6.62109 36.9727C4.78516 37.7344 4.16016 38.2227 3.63281 39.2969C3.16406 40.2539 3.125 40.4883 3.125 43.1446C3.125 44.7266 3.20312 46.1133 3.28125 46.25C3.41797 46.4258 4.98047 46.4844 10.4688 46.4453L17.4805 46.3867L17.5391 45.4688L17.5977 44.5313H25H32.4023L32.4609 45.4492L32.5195 46.3867L39.5312 46.4453C45.0195 46.4844 46.582 46.4258 46.7188 46.25C46.7969 46.1133 46.875 44.7266 46.875 43.1641C46.875 40.1172 46.6797 39.336 45.7031 38.3008C45.0781 37.6563 42.8711 36.6602 42.0312 36.6407C41.3477 36.6211 41.3086 36.6602 41.1328 37.4805C41.0156 37.9883 40.7031 38.5938 40.2734 39.0235L39.6094 39.7461L38.9453 39.0235C38.5156 38.5547 38.2422 38.0078 38.1641 37.4805C38.0859 37.0508 37.9102 36.6407 37.7539 36.5821C37.3633 36.4258 35.4492 37.0313 34.4141 37.6563C33.9453 37.9102 33.3398 38.4961 33.0469 38.9258C32.6172 39.5899 32.5195 39.961 32.4609 41.5235L32.3828 43.3594H24.9805H17.5781V41.9141C17.5781 40.3907 17.3438 39.4727 16.7578 38.6328C16.2891 37.9492 13.7109 36.6797 12.7734 36.6407C12.0898 36.6211 12.0508 36.6407 11.8164 37.5782C11.6797 38.125 11.3281 38.75 10.9766 39.1211L10.3711 39.7266L9.70703 39.0235C9.29688 38.5938 8.98438 38.0078 8.86719 37.4805C8.65234 36.4258 8.20312 36.3282 6.62109 36.9727ZM7.96875 38.5547C8.20312 39.1797 9.94141 41.0157 10.3125 41.0157C10.7812 41.0157 12.168 39.6485 12.5586 38.8282C12.9297 38.0078 13.0469 37.9102 13.4766 38.0078C14.3555 38.2032 15.5078 38.9453 15.957 39.6289C16.3672 40.2344 16.4062 40.5078 16.4062 42.793V45.3125H10.332H4.25781L4.33594 42.6953C4.39453 40.4102 4.45312 40 4.80469 39.5117C5.17578 39.0039 7.03125 37.8907 7.51953 37.8907C7.63672 37.8907 7.83203 38.1836 7.96875 38.5547ZM37.4414 38.8282C37.832 39.6485 39.2383 41.0157 39.6875 41.0157C40.0586 41.0157 41.7969 39.1797 42.0312 38.5352C42.2461 37.9492 42.3438 37.8907 42.7734 37.9883C43.5938 38.2032 44.7656 38.9258 45.1953 39.5117C45.5469 40 45.6055 40.3907 45.6641 42.6953L45.7422 45.3125H39.668H33.5938V42.793C33.5938 40.5274 33.6328 40.2344 34.043 39.6289C34.4336 39.0235 36.2695 37.8711 36.7969 37.8907C36.9141 37.9102 37.207 38.3203 37.4414 38.8282Z" fill="white"/>
</svg>
