<svg width="40" height="32" viewBox="0 0 40 32" fill="none" xmlns="http://www.w3.org/2000/svg">
<path d="M14.181 25.2803C14.181 28.209 11.8653 30.5833 9.00862 30.5833C6.15198 30.5833 3.83621 28.209 3.83621 25.2803M14.181 25.2803C14.181 22.3515 11.8653 19.9772 9.00862 19.9772C6.15198 19.9772 3.83621 22.3515 3.83621 25.2803M14.181 25.2803H25.819M3.83621 25.2803H1.25V2.41663C1.25 1.86434 1.69772 1.41663 2.25 1.41663H25.819V25.2803M37.4569 25.2803C37.4569 28.209 35.1411 30.5833 32.2845 30.5833C29.4278 30.5833 27.1121 28.209 27.1121 25.2803M37.4569 25.2803C37.4569 22.3515 35.1411 19.9772 32.2845 19.9772C29.4278 19.9772 27.1121 22.3515 27.1121 25.2803M37.4569 25.2803H38.75V14.6742L32.2845 8.04541H25.819V25.2803M27.1121 25.2803H25.819" stroke="white" stroke-width="1" stroke-linecap="round" stroke-linejoin="round"/>
<path d="M10 11.8784C10.9414 12.5631 12.8243 14.4459 13.5946 15.7297C14.536 13.6757 16.9324 9.05405 19.5 7" stroke="white" stroke-width="1" stroke-linecap="round" stroke-linejoin="round"/>
</svg>
