<svg width="28" height="28" viewBox="0 0 28 28" fill="none" xmlns="http://www.w3.org/2000/svg">
<path fill-rule="evenodd" clip-rule="evenodd" d="M14 28C21.732 28 28 21.732 28 14C28 6.26801 21.732 0 14 0C6.26801 0 0 6.26801 0 14C0 20.5456 4.49211 26.0421 10.5617 27.5747V18.2816H7V14.3301H10.5617V11.3184C10.5617 7.89294 12.6548 6 15.8603 6C17.3945 6 19 6.26699 19 6.26699V9.63107H17.2302C15.4877 9.63107 14.9452 10.6857 14.9452 11.767V14.3301H18.8356L18.2137 18.2816H14.9452V27.8345C14.4324 27.913 13.911 27.964 13.3823 27.9866C13.5871 27.9955 13.793 28 14 28Z" fill="white"/>
</svg>
