<svg width="28" height="28" viewBox="0 0 28 28" fill="none" xmlns="http://www.w3.org/2000/svg">
<path fill-rule="evenodd" clip-rule="evenodd" d="M6 0C2.68628 0 0 2.68629 0 6V22C0 25.3137 2.68628 28 6 28H22C25.3137 28 28 25.3137 28 22V6C28 2.68629 25.3137 0 22 0H6ZM4.65393 7.27606C4 8.55952 4 10.2397 4 13.6V14.4C4 17.7603 4 19.4405 4.65393 20.7239C5.22919 21.8529 6.14709 22.7708 7.27606 23.346C8.55951 24 10.2397 24 13.6 24H14.4C17.7603 24 19.4405 24 20.7239 23.346C21.8529 22.7708 22.7708 21.8529 23.3461 20.7239C24 19.4405 24 17.7603 24 14.4V13.6C24 10.2397 24 8.55952 23.3461 7.27606C22.7708 6.14709 21.8529 5.2292 20.7239 4.65396C19.4405 4 17.7603 4 14.4 4H13.6C10.2397 4 8.55951 4 7.27606 4.65396C6.14709 5.2292 5.22919 6.14709 4.65393 7.27606ZM14.4 6H13.6C11.8868 6 10.7222 6.00156 9.82208 6.0751C8.94525 6.14674 8.49683 6.2766 8.18402 6.43597C7.4314 6.81947 6.81946 7.4314 6.43597 8.18404C6.27661 8.49684 6.14673 8.94525 6.07507 9.82208C6.00153 10.7223 6 11.8868 6 13.6V14.4C6 16.1132 6.00153 17.2777 6.07507 18.1779C6.14673 19.0547 6.27661 19.5032 6.43597 19.816C6.81946 20.5686 7.4314 21.1805 8.18402 21.564C8.49683 21.7234 8.94525 21.8533 9.82208 21.9249C10.7222 21.9984 11.8868 22 13.6 22H14.4C16.1132 22 17.2778 21.9984 18.1779 21.9249C19.0547 21.8533 19.5032 21.7234 19.816 21.564C20.5686 21.1805 21.1805 20.5686 21.564 19.816C21.7234 19.5032 21.8533 19.0547 21.9249 18.1779C21.9985 17.2777 22 16.1132 22 14.4V13.6C22 11.8868 21.9985 10.7223 21.9249 9.82208C21.8533 8.94525 21.7234 8.49684 21.564 8.18404C21.1805 7.4314 20.5686 6.81947 19.816 6.43597C19.5032 6.2766 19.0547 6.14674 18.1779 6.0751C17.2778 6.00156 16.1132 6 14.4 6ZM21 8.5C21 9.32843 20.3284 10 19.5 10C18.6716 10 18 9.32843 18 8.5C18 7.67157 18.6716 7 19.5 7C20.3284 7 21 7.67157 21 8.5ZM14 19C16.7614 19 19 16.7614 19 14C19 11.2386 16.7614 9 14 9C11.2386 9 9 11.2386 9 14C9 16.7614 11.2386 19 14 19ZM14 17C15.6569 17 17 15.6569 17 14C17 12.3431 15.6569 11 14 11C12.3431 11 11 12.3431 11 14C11 15.6569 12.3431 17 14 17Z" fill="#fff"/>
</svg>
