<svg width="82" height="78" viewBox="0 0 82 78" fill="none" xmlns="http://www.w3.org/2000/svg">
<path d="M25.5576 28.2763C30.6448 41.6723 35.9114 47.0172 49.3095 52.7102L43.5031 60.5816C28.1179 53.4716 20.4548 41.4864 16.8458 32.1333L25.5576 28.2763Z" fill="white"/>
<path d="M29.8254 9.78215C32.5457 9.77188 34.614 11.9568 34.4286 14.4309C34.1368 18.3243 34.4474 21.1333 35.284 24.6152C35.7435 26.5278 34.7039 28.4703 33.0519 29.7215C30.8252 31.4079 29.1241 33.5567 27.772 35.4065C25.8981 37.9704 19.449 37.7862 18.0228 34.9931C15.0917 29.2528 13.1053 18.6772 17.3855 11.5321C18.0578 10.4098 19.4116 9.82146 20.8143 9.81616L29.8254 9.78215Z" fill="white"/>
<path d="M71.118 52.2604C71.4563 49.7998 69.3257 47.6652 66.6091 47.5355C62.3342 47.3314 59.3126 46.7124 55.6214 45.5366C53.5939 44.8907 51.3535 45.5979 49.7922 46.9425C47.688 48.7549 45.1434 50.036 42.9663 51.0371C39.9489 52.4248 39.3739 58.2833 42.2441 59.91C48.1428 63.2529 59.4206 66.3224 67.7163 63.3081C69.0193 62.8346 69.8228 61.6802 69.9973 60.4114L71.118 52.2604Z" fill="white"/>
</svg>
